<?xml version="1.0" encoding="utf-8"?>
<!-- Generator: Adobe Illustrator 19.0.0, SVG Export Plug-In . SVG Version: 6.00 Build 0)  -->
<svg version="1.1" id="Calque_1" xmlns="http://www.w3.org/2000/svg" xmlns:xlink="http://www.w3.org/1999/xlink" x="0px" y="0px"
	 viewBox="0 0 875 589" style="enable-background:new 0 0 875 589;" xml:space="preserve">
<style type="text/css">
	.st0{font-family:'MyriadPro-Regular';}
	.st1{font-size:12px;}
	.st2{fill:none;stroke:#000000;stroke-miterlimit:10;}
	.st3{fill:none;stroke:#000000;stroke-width:2;stroke-miterlimit:10;}
	.st4{fill:none;stroke:#000000;stroke-width:2;stroke-miterlimit:10;stroke-dasharray:11.9127,11.9127;}
	.st5{fill:none;stroke:#000000;stroke-width:2;stroke-miterlimit:10;stroke-dasharray:11.2941,11.2941;}
	.st6{fill:none;stroke:#000000;stroke-width:2;stroke-miterlimit:10;stroke-dasharray:12.2222,12.2222;}
	.st7{fill:none;stroke:#000000;stroke-width:2;stroke-miterlimit:10;stroke-dasharray:12.1593,12.1593;}
	.st8{fill:none;stroke:#000000;stroke-width:2;stroke-miterlimit:10;stroke-dasharray:12.0395,12.0395;}
	.st9{fill:none;stroke:#000000;stroke-width:2;stroke-miterlimit:10;stroke-dasharray:12.6667,12.6667;}
	.st10{fill:none;stroke:#000000;stroke-width:2;stroke-miterlimit:10;stroke-dasharray:11.2418,11.2418;}
	.st11{fill:none;stroke:#000000;stroke-width:2;stroke-miterlimit:10;stroke-dasharray:11.8779,11.8779;}
	.st12{fill:none;stroke:#000000;stroke-width:2;stroke-miterlimit:10;stroke-dasharray:11.5,11.5;}
	.st13{font-family:'MyriadPro-BoldCond';}
	.st14{font-size:14px;}
</style>
<g id="XMLID_51_">
	<text id="XMLID_85_" transform="matrix(1 0 0 1 23.8984 305.8264)"><tspan x="0" y="0" class="st0 st1">bases de données</tspan><tspan x="-1.7" y="14.4" class="st0 st1">recueillies en ligne</tspan></text>
	<g id="XMLID_5_">
		<ellipse id="XMLID_7_" class="st2" cx="68.8" cy="273.2" rx="54.9" ry="11.2"/>
		<path id="XMLID_6_" class="st2" d="M123.5,273v56.5h0.2c0,6-24.6,11.2-54.9,11.2s-54.9-5.2-54.9-11.2h-0.4V273"/>
	</g>
	<g id="XMLID_8_">
		<ellipse id="XMLID_10_" class="st2" cx="226" cy="228.4" rx="64" ry="8.4"/>
		<path id="XMLID_9_" class="st2" d="M289.5,228v42.5h0.5c0,5-28.6,8.4-64,8.4s-64-3.4-64-8.4h-0.5V228"/>
	</g>
	<text id="XMLID_11_" transform="matrix(1 0 0 1 178.0908 260)" class="st0 st1">jeu d’entraînement</text>
	<g id="XMLID_13_">
		<ellipse id="XMLID_15_" class="st2" cx="226" cy="342.4" rx="64" ry="8.4"/>
		<path id="XMLID_14_" class="st2" d="M289.5,342v42.5h0.5c0,5-28.6,8.4-64,8.4s-64-3.4-64-8.4h-0.5V342"/>
	</g>
	<text id="XMLID_12_" transform="matrix(1 0 0 1 199.6924 373)" class="st0 st1">jeu de test</text>
	<circle id="XMLID_18_" class="st3" cx="85.5" cy="494.5" r="38.5"/>
	<text id="XMLID_20_" transform="matrix(1 0 0 1 60.5703 492.5)"><tspan x="0" y="0" class="st0 st1">station de</tspan><tspan x="0.8" y="14.4" class="st0 st1">détection</tspan></text>
	<g id="XMLID_22_">
		<ellipse id="XMLID_24_" class="st2" cx="226" cy="473.4" rx="64" ry="8.4"/>
		<path id="XMLID_23_" class="st2" d="M289.5,473v42.5h0.5c0,5-28.6,8.4-64,8.4s-64-3.4-64-8.4h-0.5V473"/>
	</g>
	<text id="XMLID_21_" transform="matrix(1 0 0 1 176.6226 497.5002)"><tspan x="0" y="0" class="st0 st1">message contenant</tspan><tspan x="20" y="14.4" class="st0 st1">les mesures</tspan></text>
	<g id="XMLID_27_">
		<circle id="XMLID_25_" class="st3" cx="357" cy="424" r="19"/>
		<text id="XMLID_26_" transform="matrix(1 0 0 1 349.6382 428)" class="st0 st1">OR</text>
	</g>
	<g id="XMLID_33_">
		<rect id="XMLID_31_" x="412" y="396.5" class="st3" width="101" height="55"/>
		<text id="XMLID_32_" transform="matrix(1 0 0 1 426.7144 422.4998)"><tspan x="0" y="0" class="st0 st1">pré-traitement</tspan><tspan x="5" y="14.4" class="st0 st1">des données</tspan></text>
	</g>
	
		<rect id="XMLID_49_" x="574.6" y="378.7" transform="matrix(0.7071 0.7071 -0.7071 0.7071 480.8857 -313.9612)" class="st3" width="89.6" height="89.6"/>
	<text id="XMLID_50_" transform="matrix(1 0 0 1 590.6879 413.1445)"><tspan x="0" y="0" class="st0 st1">fonction de</tspan><tspan x="-10.8" y="14.4" class="st0 st1">classification de</tspan><tspan x="1.3" y="28.8" class="st0 st1">plausibilité</tspan></text>
	<rect id="XMLID_58_" x="568.9" y="272.5" class="st3" width="101" height="55"/>
	<text id="XMLID_52_" transform="matrix(1 0 0 1 597.9218 297.4998)"><tspan x="0" y="0" class="st0 st1">sélection</tspan><tspan x="-5.5" y="14.4" class="st0 st1">du classeur</tspan></text>
	<g id="XMLID_19_">
		<ellipse id="XMLID_16_" class="st3" cx="775.5" cy="422.7" rx="45.5" ry="20.7"/>
		<text id="XMLID_17_" transform="matrix(1 0 0 1 752.6025 426)" class="st0 st1">malicieux</text>
	</g>
	<g id="XMLID_28_">
		<ellipse id="XMLID_30_" class="st3" cx="776.5" cy="476.7" rx="45.5" ry="20.7"/>
		<text id="XMLID_29_" transform="matrix(1 0 0 1 756.2188 480)" class="st0 st1">honnête</text>
	</g>
	<g id="XMLID_37_">
		<rect id="XMLID_36_" x="725" y="121.5" class="st3" width="101" height="55"/>
	</g>
	<text id="XMLID_35_" transform="matrix(1 0 0 1 739.0508 145.9998)"><tspan x="0" y="0" class="st0 st1">évalutaion des</tspan><tspan x="1.8" y="14.4" class="st0 st1">performances</tspan></text>
	<g id="XMLID_3_">
		<rect id="XMLID_4_" x="725" y="22" class="st3" width="101" height="55"/>
	</g>
	<text id="XMLID_2_" transform="matrix(1 0 0 1 733.6748 46.4998)"><tspan x="0" y="0" class="st0 st1">optimisation des</tspan><tspan x="13.3" y="14.4" class="st0 st1">paramètres</tspan></text>
	<path id="XMLID_34_" class="st3" d="M596.1,176.5H494.8c-6.6,0-12-5.4-12-12V34c0-6.6,5.4-12,12-12h101.3c6.6,0,12,5.4,12,12v130.5
		C608.1,171.1,602.7,176.5,596.1,176.5z"/>
	<g id="XMLID_40_">
		<rect id="XMLID_38_" x="513.9" y="61" class="st2" width="63" height="27.5"/>
		<text id="XMLID_39_" transform="matrix(1 0 0 1 534.2977 79.75)" class="st0 st1">SVM</text>
	</g>
	<g id="XMLID_41_">
		<rect id="XMLID_43_" x="513.9" y="143.7" class="st2" width="63" height="27.5"/>
		<text id="XMLID_42_" transform="matrix(1 0 0 1 524.14 162.4998)" class="st0 st1">R. Forest</text>
	</g>
	<g id="XMLID_44_">
		<rect id="XMLID_46_" x="513.9" y="116" class="st2" width="63" height="27.5"/>
		<text id="XMLID_45_" transform="matrix(1 0 0 1 521.2777 134.75)" class="st0 st1">AdaBoost</text>
	</g>
	<g id="XMLID_47_">
		<rect id="XMLID_53_" x="513.9" y="88.5" class="st2" width="63" height="27.5"/>
		<text id="XMLID_48_" transform="matrix(1 0 0 1 534.58 107.25)" class="st0 st1">MLP</text>
	</g>
	<text id="XMLID_54_" transform="matrix(1 0 0 1 523.0297 46.4998)" class="st0 st1">classeurs</text>
	<g id="XMLID_55_">
		<g id="XMLID_225_">
			<line id="XMLID_228_" class="st3" x1="123.5" y1="305.8" x2="160.3" y2="247.9"/>
			<g id="XMLID_226_">
				<polygon id="XMLID_227_" points="161,253.1 160,248.4 155.3,249.5 156.8,247 161.5,246 162.5,250.7 				"/>
			</g>
		</g>
	</g>
	<g id="XMLID_56_">
		<g id="XMLID_220_">
			<line id="XMLID_223_" class="st3" x1="123.5" y1="305.8" x2="160.3" y2="365.5"/>
			<g id="XMLID_221_">
				<polygon id="XMLID_222_" points="155.3,363.9 160,365 161.1,360.3 162.6,362.8 161.5,367.5 156.8,366.4 				"/>
			</g>
		</g>
	</g>
	<g id="XMLID_57_">
		<g id="XMLID_215_">
			<line id="XMLID_218_" class="st3" x1="124" y1="495" x2="160" y2="495"/>
			<g id="XMLID_216_">
				<polygon id="XMLID_217_" points="155.7,498 159.1,495 155.7,492 158.6,492 162,495 158.6,498 				"/>
			</g>
		</g>
	</g>
	<g id="XMLID_59_">
		<g id="XMLID_210_">
			<line id="XMLID_213_" class="st3" x1="290" y1="367.5" x2="336.5" y2="422.3"/>
			<g id="XMLID_211_">
				<polygon id="XMLID_212_" points="331.4,421.4 336.1,421.8 336.5,417 338.4,419.2 338,424 333.2,423.6 				"/>
			</g>
		</g>
	</g>
	<g id="XMLID_60_">
		<g id="XMLID_205_">
			<line id="XMLID_208_" class="st3" x1="290" y1="246" x2="339" y2="414.1"/>
			<g id="XMLID_206_">
				<polygon id="XMLID_207_" points="334.6,411.2 338.8,413.5 341.1,409.3 341.9,412.1 339.6,416.3 335.4,414 				"/>
			</g>
		</g>
	</g>
	<g id="XMLID_61_">
		<g id="XMLID_200_">
			<line id="XMLID_203_" class="st3" x1="289.5" y1="494.5" x2="338.2" y2="433.5"/>
			<g id="XMLID_201_">
				<polygon id="XMLID_202_" points="338.4,438.7 337.8,434 333.1,434.5 334.9,432.2 339.6,431.7 340.2,436.5 				"/>
			</g>
		</g>
	</g>
	<g id="XMLID_62_">
		<g id="XMLID_195_">
			<line id="XMLID_198_" class="st3" x1="376" y1="424" x2="410" y2="424"/>
			<g id="XMLID_196_">
				<polygon id="XMLID_197_" points="405.7,427 409.1,424 405.7,421 408.6,421 412,424 408.6,427 				"/>
			</g>
		</g>
	</g>
	<g id="XMLID_64_">
		<g id="XMLID_190_">
			<line id="XMLID_193_" class="st3" x1="513" y1="424" x2="554" y2="424"/>
			<g id="XMLID_191_">
				<polygon id="XMLID_192_" points="549.7,427 553.1,424 549.7,421 552.6,421 556,424 552.6,427 				"/>
			</g>
		</g>
	</g>
	<g id="XMLID_65_">
		<g id="XMLID_185_">
			<line id="XMLID_188_" class="st3" x1="619" y1="328" x2="619" y2="358"/>
			<g id="XMLID_186_">
				<polygon id="XMLID_187_" points="616,353.7 619,357.1 622,353.7 622,356.6 619,360 616,356.6 				"/>
			</g>
		</g>
	</g>
	<g id="XMLID_70_">
		<g id="XMLID_180_">
			<polyline id="XMLID_183_" class="st3" points="777,499 777,543 777,546 619,546 619,487 			"/>
			<g id="XMLID_181_">
				<polygon id="XMLID_182_" points="774,503.3 777,499.9 780,503.3 780,500.4 777,497 774,500.4 				"/>
			</g>
		</g>
	</g>
	<g id="XMLID_63_">
		<g id="XMLID_175_">
			<line id="XMLID_178_" class="st3" x1="725" y1="50" x2="610" y2="50"/>
			<g id="XMLID_176_">
				<polygon id="XMLID_177_" points="614.3,47 610.9,50 614.3,53 611.4,53 608,50 611.4,47 				"/>
			</g>
		</g>
	</g>
	<g id="XMLID_67_">
		<g id="XMLID_170_">
			<line id="XMLID_173_" class="st3" x1="775" y1="122" x2="775" y2="79"/>
			<g id="XMLID_171_">
				<polygon id="XMLID_172_" points="778,83.3 775,79.9 772,83.3 772,80.4 775,77 778,80.4 				"/>
			</g>
		</g>
	</g>
	<line id="XMLID_68_" class="st3" x1="577" y1="158" x2="619" y2="158"/>
	<line id="XMLID_69_" class="st3" x1="577" y1="130" x2="619" y2="130"/>
	<line id="XMLID_71_" class="st3" x1="577" y1="102" x2="619" y2="102"/>
	<g id="XMLID_73_">
		<g id="XMLID_165_">
			<polyline id="XMLID_168_" class="st3" points="619,271 619,75 577,75 			"/>
			<g id="XMLID_166_">
				<polygon id="XMLID_167_" points="622,266.7 619,270.1 616,266.7 616,269.6 619,273 622,269.6 				"/>
			</g>
		</g>
	</g>
	<g id="XMLID_66_">
		<g id="XMLID_160_">
			<line id="XMLID_163_" class="st3" x1="683" y1="424" x2="728" y2="424"/>
			<g id="XMLID_161_">
				<polygon id="XMLID_162_" points="723.7,427 727.1,424 723.7,421 726.6,421 730,424 726.6,427 				"/>
			</g>
		</g>
	</g>
	<g id="XMLID_72_">
		<g id="XMLID_151_">
			<polyline id="XMLID_159_" class="st3" points="314.8,399 314.8,405 308.8,405 			"/>
			<line id="XMLID_158_" class="st4" x1="296.9" y1="405" x2="17" y2="405"/>
			<polyline id="XMLID_157_" class="st3" points="11,405 5,405 5,399 			"/>
			<line id="XMLID_156_" class="st5" x1="5" y1="387.7" x2="5" y2="212.6"/>
			<polyline id="XMLID_155_" class="st3" points="5,207 5,201 11,201 			"/>
			<line id="XMLID_154_" class="st4" x1="22.9" y1="201" x2="302.9" y2="201"/>
			<polyline id="XMLID_153_" class="st3" points="308.8,201 314.8,201 314.8,207 			"/>
			<line id="XMLID_152_" class="st5" x1="314.8" y1="218.3" x2="314.8" y2="393.4"/>
		</g>
	</g>
	<g id="XMLID_74_">
		<g id="XMLID_141_">
			<polyline id="XMLID_149_" class="st3" points="314.8,547 314.8,553 308.8,553 			"/>
			<line id="XMLID_148_" class="st4" x1="296.9" y1="553" x2="17" y2="553"/>
			<polyline id="XMLID_147_" class="st3" points="11,553 5,553 5,547 			"/>
			<line id="XMLID_146_" class="st6" x1="5" y1="534.8" x2="5" y2="443.1"/>
			<polyline id="XMLID_145_" class="st3" points="5,437 5,431 11,431 			"/>
			<line id="XMLID_144_" class="st4" x1="22.9" y1="431" x2="302.9" y2="431"/>
			<polyline id="XMLID_143_" class="st3" points="308.8,431 314.8,431 314.8,437 			"/>
			<line id="XMLID_142_" class="st6" x1="314.8" y1="449.2" x2="314.8" y2="540.9"/>
		</g>
	</g>
	<g id="XMLID_75_">
		<g id="XMLID_131_">
			<polyline id="XMLID_139_" class="st3" points="706.5,512.3 706.5,518.3 700.5,518.3 			"/>
			<line id="XMLID_138_" class="st7" x1="688.3" y1="518.3" x2="402.6" y2="518.3"/>
			<polyline id="XMLID_137_" class="st3" points="396.5,518.3 390.5,518.3 390.5,512.3 			"/>
			<line id="XMLID_136_" class="st8" x1="390.5" y1="500.2" x2="390.5" y2="265.5"/>
			<polyline id="XMLID_135_" class="st3" points="390.5,259.5 390.5,253.5 396.5,253.5 			"/>
			<line id="XMLID_134_" class="st7" x1="408.7" y1="253.5" x2="694.4" y2="253.5"/>
			<polyline id="XMLID_133_" class="st3" points="700.5,253.5 706.5,253.5 706.5,259.5 			"/>
			<line id="XMLID_132_" class="st8" x1="706.5" y1="271.5" x2="706.5" y2="506.3"/>
		</g>
	</g>
	<g id="XMLID_76_">
		<g id="XMLID_121_">
			<polyline id="XMLID_129_" class="st3" points="842,512.3 842,518.3 836,518.3 			"/>
			<line id="XMLID_128_" class="st9" x1="823.3" y1="518.3" x2="728.3" y2="518.3"/>
			<polyline id="XMLID_127_" class="st3" points="722,518.3 716,518.3 716,512.3 			"/>
			<line id="XMLID_126_" class="st10" x1="716" y1="501" x2="716" y2="371.8"/>
			<polyline id="XMLID_125_" class="st3" points="716,366.1 716,360.1 722,360.1 			"/>
			<line id="XMLID_124_" class="st9" x1="734.7" y1="360.1" x2="829.7" y2="360.1"/>
			<polyline id="XMLID_123_" class="st3" points="836,360.1 842,360.1 842,366.1 			"/>
			<line id="XMLID_122_" class="st10" x1="842" y1="377.4" x2="842" y2="506.7"/>
		</g>
	</g>
	<g id="XMLID_77_">
		<g id="XMLID_111_">
			<polyline id="XMLID_119_" class="st3" points="842,184.5 842,190.5 836,190.5 			"/>
			<line id="XMLID_118_" class="st11" x1="824.1" y1="190.5" x2="402.5" y2="190.5"/>
			<polyline id="XMLID_117_" class="st3" points="396.5,190.5 390.5,190.5 390.5,184.5 			"/>
			<line id="XMLID_116_" class="st12" x1="390.5" y1="173" x2="390.5" y2="17.8"/>
			<polyline id="XMLID_115_" class="st3" points="390.5,12 390.5,6 396.5,6 			"/>
			<line id="XMLID_114_" class="st11" x1="408.4" y1="6" x2="830.1" y2="6"/>
			<polyline id="XMLID_113_" class="st3" points="836,6 842,6 842,12 			"/>
			<line id="XMLID_112_" class="st12" x1="842" y1="23.5" x2="842" y2="178.8"/>
		</g>
	</g>
	<g id="XMLID_78_">
		<g id="XMLID_105_">
			<line id="XMLID_108_" class="st3" x1="775" y1="360" x2="775" y2="179"/>
			<g id="XMLID_106_">
				<polygon id="XMLID_107_" points="778,183.3 775,179.9 772,183.3 772,180.4 775,177 778,180.4 				"/>
			</g>
		</g>
	</g>
	<text id="XMLID_79_" transform="matrix(1 0 0 1 13.5 220)" class="st13 st14">HORS-LIGNE</text>
	<text id="XMLID_80_" transform="matrix(1 0 0 1 398.5 25)" class="st13 st14">HORS-LIGNE</text>
	<text id="XMLID_81_" transform="matrix(1 0 0 1 404.5 278.9168)" class="st13 st14">MODULE DE DÉTECTION</text>
	<text id="XMLID_82_" transform="matrix(1 0 0 1 13.5 449.5)" class="st13 st14">EN-LIGNE</text>
	<text id="XMLID_83_" transform="matrix(1 0 0 1 725 380)" class="st13 st14">SORTIES</text>
	<g id="XMLID_86_">
		<g id="XMLID_100_">
			<polyline id="XMLID_103_" class="st3" points="161,555 161,585 870,585 870,424 842,424 			"/>
			<g id="XMLID_101_">
				<polygon id="XMLID_102_" points="158,559.3 161,555.9 164,559.3 164,556.4 161,553 158,556.4 				"/>
			</g>
		</g>
	</g>
</g>
</svg>
