<?xml version="1.0" encoding="utf-8"?>
<!-- Generator: Adobe Illustrator 19.0.0, SVG Export Plug-In . SVG Version: 6.00 Build 0)  -->
<svg version="1.1" id="Calque_1" xmlns="http://www.w3.org/2000/svg" xmlns:xlink="http://www.w3.org/1999/xlink" x="0px" y="0px"
	 viewBox="0 0 1000 1000" style="enable-background:new 0 0 1000 1000;" xml:space="preserve">
<style type="text/css">
	.st0{font-family:'MyriadPro-Regular';}
	.st1{font-size:12px;}
	.st2{fill:none;stroke:#000000;stroke-miterlimit:10;}
	.st3{fill:none;stroke:#000000;stroke-width:2;stroke-miterlimit:10;}
	.st4{enable-background:new    ;}
	.st5{font-size:10px;}
	.st6{fill:none;stroke:#000000;stroke-width:2;stroke-miterlimit:10;stroke-dasharray:11.9127,11.9127;}
	.st7{fill:none;stroke:#000000;stroke-width:2;stroke-miterlimit:10;stroke-dasharray:11.2941,11.2941;}
	.st8{fill:none;stroke:#000000;stroke-width:2;stroke-miterlimit:10;stroke-dasharray:12.2222,12.2222;}
	.st9{fill:none;stroke:#000000;stroke-width:2;stroke-miterlimit:10;stroke-dasharray:12.1593,12.1593;}
	.st10{fill:none;stroke:#000000;stroke-width:2;stroke-miterlimit:10;stroke-dasharray:12.0395,12.0395;}
	.st11{fill:none;stroke:#000000;stroke-width:2;stroke-miterlimit:10;stroke-dasharray:12.6667,12.6667;}
	.st12{fill:none;stroke:#000000;stroke-width:2;stroke-miterlimit:10;stroke-dasharray:11.2418,11.2418;}
	.st13{fill:none;stroke:#000000;stroke-width:2;stroke-miterlimit:10;stroke-dasharray:11.8779,11.8779;}
	.st14{fill:none;stroke:#000000;stroke-width:2;stroke-miterlimit:10;stroke-dasharray:11.5,11.5;}
	.st15{font-family:'MyriadPro-BoldCond';}
	.st16{font-size:14px;}
</style>
<text id="XMLID_404_" transform="matrix(1 0 0 1 56.8984 567.7764)" class="st0 st1">bases de données</text>
<text id="XMLID_403_" transform="matrix(1 0 0 1 55.1984 582.1764)" class="st0 st1">recueillies en ligne</text>
<g id="XMLID_5_">
	<ellipse id="XMLID_7_" class="st2" cx="101.8" cy="535.2" rx="54.9" ry="11.2"/>
	<path id="XMLID_6_" class="st2" d="M156.5,535v56.5h0.2c0,6-24.6,11.2-54.9,11.2s-54.9-5.2-54.9-11.2h-0.4V535"/>
</g>
<g id="XMLID_8_">
	<ellipse id="XMLID_10_" class="st2" cx="259" cy="490.4" rx="64" ry="8.4"/>
	<path id="XMLID_9_" class="st2" d="M322.5,490v42.5h0.5c0,5-28.6,8.4-64,8.4s-64-3.4-64-8.4h-0.5V490"/>
</g>
<text id="XMLID_11_" transform="matrix(1 0 0 1 211.0908 521.95)" class="st0 st1">jeu d’entraînement</text>
<g id="XMLID_13_">
	<ellipse id="XMLID_15_" class="st2" cx="259" cy="604.3" rx="64" ry="8.4"/>
	<path id="XMLID_14_" class="st2" d="M322.5,604v42.5h0.5c0,5-28.6,8.4-64,8.4s-64-3.4-64-8.4h-0.5V604"/>
</g>
<text id="XMLID_12_" transform="matrix(1 0 0 1 232.6924 634.95)" class="st0 st1">jeu de test</text>
<circle id="XMLID_18_" class="st3" cx="118.5" cy="756.5" r="38.5"/>
<text id="XMLID_389_" transform="matrix(1 0 0 1 93.5703 754.45)" class="st0 st1">station de</text>
<text id="XMLID_388_" transform="matrix(1 0 0 1 94.3703 768.85)" class="st0 st1">détection</text>
<g id="XMLID_22_">
	<ellipse id="XMLID_24_" class="st2" cx="259" cy="735.3" rx="64" ry="8.4"/>
	<path id="XMLID_23_" class="st2" d="M322.5,735v42.5h0.5c0,5-28.6,8.4-64,8.4s-64-3.4-64-8.4h-0.5V735"/>
</g>
<text id="XMLID_383_" transform="matrix(1 0 0 1 209.6226 759.4502)" class="st0 st1">message contenant</text>
<text id="XMLID_382_" transform="matrix(1 0 0 1 229.6226 773.8502)" class="st0 st1">les mesures</text>
<g id="XMLID_27_">
	<circle id="XMLID_25_" class="st3" cx="390" cy="686" r="19"/>
	<text id="XMLID_26_" transform="matrix(1 0 0 1 382.6382 689.95)" class="st0 st1">OR</text>
</g>
<g id="XMLID_33_">
	<rect id="XMLID_31_" x="445" y="658.5" class="st3" width="101" height="55"/>
	<text id="XMLID_376_" transform="matrix(1 0 0 1 459.7144 684.4498)" class="st0 st1">pré-traitement</text>
	<text id="XMLID_375_" transform="matrix(1 0 0 1 464.7144 698.8498)" class="st0 st1">des données</text>
</g>
<rect id="XMLID_49_" x="607.6" y="640.6" transform="matrix(-0.7071 -0.7071 0.7071 -0.7071 629.0602 1631.412)" class="st3" width="89.6" height="89.6"/>
<text id="XMLID_371_" transform="matrix(1 0 0 1 623.6879 675.0945)" class="st0 st1">fonction de</text>
<text id="XMLID_370_" transform="matrix(1 0 0 1 612.8879 689.4945)" class="st0 st1">classification de</text>
<text id="XMLID_369_" transform="matrix(1 0 0 1 624.9879 703.8945)" class="st0 st1">plausibilité</text>
<rect id="XMLID_58_" x="601.9" y="534.5" class="st3" width="101" height="55"/>
<text id="XMLID_366_" transform="matrix(1 0 0 1 630.9218 559.4498)" class="st0 st1">sélection</text>
<text id="XMLID_365_" transform="matrix(1 0 0 1 625.4218 573.8498)" class="st0 st1">du classeur</text>
<g id="XMLID_19_">
	<ellipse id="XMLID_16_" class="st3" cx="808.5" cy="684.7" rx="45.5" ry="20.7"/>
	<text id="XMLID_17_" transform="matrix(1 0 0 1 785.6025 687.95)" class="st0 st1">malicieux</text>
</g>
<g id="XMLID_28_">
	<ellipse id="XMLID_30_" class="st3" cx="809.5" cy="738.7" rx="45.5" ry="20.7"/>
	<text id="XMLID_29_" transform="matrix(1 0 0 1 789.2188 741.95)" class="st0 st1">honnête</text>
</g>
<g id="XMLID_37_">
	<rect id="XMLID_36_" x="758" y="383.5" class="st3" width="101" height="55"/>
</g>
<text id="XMLID_354_" transform="matrix(1 0 0 1 772.551 401.3498)" class="st4"><tspan x="0" y="0" class="st0 st1">évaluation des</tspan><tspan x="1.8" y="14.4" class="st0 st1">performances</tspan><tspan x="-10.3" y="26.4" class="st0 st5">(matrice de confusion)</tspan></text>
<g id="XMLID_3_">
	<rect id="XMLID_4_" x="527.1" y="247.1" class="st3" width="101" height="55"/>
</g>
<text id="XMLID_350_" transform="matrix(1 0 0 1 535.8245 271.5937)" class="st0 st1">optimisation des</text>
<text id="XMLID_349_" transform="matrix(1 0 0 1 549.1244 285.9937)" class="st0 st1">paramètres</text>
<path id="XMLID_34_" class="st3" d="M628.3,480.4H527c-6.6,0-12-5.4-12-12V337.9c0-6.6,5.4-12,12-12h101.3c6.6,0,12,5.4,12,12v130.5
	C640.3,475,634.9,480.4,628.3,480.4z"/>
<g id="XMLID_40_">
	<rect id="XMLID_38_" x="546.1" y="364.9" class="st2" width="63" height="27.5"/>
	<text id="XMLID_39_" transform="matrix(1 0 0 1 566.5474 383.65)" class="st0 st1">SVM</text>
</g>
<g id="XMLID_41_">
	<rect id="XMLID_43_" x="546.1" y="447.6" class="st2" width="63" height="27.5"/>
	<text id="XMLID_42_" transform="matrix(1 0 0 1 556.3896 466.3998)" class="st0 st1">R. Forest</text>
</g>
<g id="XMLID_44_">
	<rect id="XMLID_46_" x="546.1" y="419.9" class="st2" width="63" height="27.5"/>
	<text id="XMLID_45_" transform="matrix(1 0 0 1 553.5273 438.65)" class="st0 st1">AdaBoost</text>
</g>
<g id="XMLID_47_">
	<rect id="XMLID_53_" x="546.1" y="392.4" class="st2" width="63" height="27.5"/>
	<text id="XMLID_48_" transform="matrix(1 0 0 1 566.8296 411.15)" class="st0 st1">MLP</text>
</g>
<text id="XMLID_54_" transform="matrix(1 0 0 1 555.2793 350.3998)" class="st0 st1">classeurs</text>
<g id="XMLID_55_">
	<g id="XMLID_225_">
		<line id="XMLID_228_" class="st3" x1="156.5" y1="567.8" x2="193.3" y2="509.9"/>
		<g id="XMLID_226_">
			<polygon id="XMLID_227_" points="194,515.1 193,510.4 188.3,511.5 189.8,509 194.5,508 195.5,512.7 			"/>
		</g>
	</g>
</g>
<g id="XMLID_56_">
	<g id="XMLID_220_">
		<line id="XMLID_223_" class="st3" x1="156.5" y1="567.8" x2="193.3" y2="627.5"/>
		<g id="XMLID_221_">
			<polygon id="XMLID_222_" points="188.3,625.8 193,627 194.1,622.3 195.6,624.8 194.5,629.5 189.8,628.3 			"/>
		</g>
	</g>
</g>
<g id="XMLID_57_">
	<g id="XMLID_215_">
		<line id="XMLID_218_" class="st3" x1="157" y1="757" x2="193" y2="757"/>
		<g id="XMLID_216_">
			<polygon id="XMLID_217_" points="188.7,760 192.1,757 188.7,754 191.6,754 195,757 191.6,760 			"/>
		</g>
	</g>
</g>
<g id="XMLID_59_">
	<g id="XMLID_210_">
		<line id="XMLID_213_" class="st3" x1="323" y1="629.5" x2="369.5" y2="684.3"/>
		<g id="XMLID_211_">
			<polygon id="XMLID_212_" points="364.4,683.3 369.1,683.8 369.5,679 371.4,681.2 371,686 366.2,685.6 			"/>
		</g>
	</g>
</g>
<g id="XMLID_60_">
	<g id="XMLID_205_">
		<line id="XMLID_208_" class="st3" x1="323" y1="508" x2="372" y2="676.1"/>
		<g id="XMLID_206_">
			<polygon id="XMLID_207_" points="367.6,673.2 371.8,675.5 374.1,671.3 374.9,674.1 372.6,678.3 368.4,676 			"/>
		</g>
	</g>
</g>
<g id="XMLID_61_">
	<g id="XMLID_200_">
		<line id="XMLID_203_" class="st3" x1="322.5" y1="756.5" x2="371.2" y2="695.5"/>
		<g id="XMLID_201_">
			<polygon id="XMLID_202_" points="371.4,700.7 370.8,696 366.1,696.5 367.9,694.2 372.6,693.7 373.2,698.5 			"/>
		</g>
	</g>
</g>
<g id="XMLID_62_">
	<g id="XMLID_195_">
		<line id="XMLID_198_" class="st3" x1="409" y1="686" x2="443" y2="686"/>
		<g id="XMLID_196_">
			<polygon id="XMLID_197_" points="438.7,689 442.1,686 438.7,683 441.6,683 445,686 441.6,689 			"/>
		</g>
	</g>
</g>
<g id="XMLID_64_">
	<g id="XMLID_190_">
		<line id="XMLID_193_" class="st3" x1="546" y1="686" x2="587" y2="686"/>
		<g id="XMLID_191_">
			<polygon id="XMLID_192_" points="582.7,689 586.1,686 582.7,683 585.6,683 589,686 585.6,689 			"/>
		</g>
	</g>
</g>
<g id="XMLID_65_">
	<g id="XMLID_185_">
		<line id="XMLID_188_" class="st3" x1="652" y1="590" x2="652" y2="620"/>
		<g id="XMLID_186_">
			<polygon id="XMLID_187_" points="649,615.7 652,619.1 655,615.7 655,618.6 652,622 649,618.6 			"/>
		</g>
	</g>
</g>
<g id="XMLID_70_">
	<g id="XMLID_180_">
		<polyline id="XMLID_183_" class="st3" points="810,761 810,805 810,808 652,808 652,749 		"/>
		<g id="XMLID_181_">
			<polygon id="XMLID_182_" points="807,765.3 810,761.8 813,765.3 813,762.3 810,759 807,762.3 			"/>
		</g>
	</g>
</g>
<g id="XMLID_67_">
	<g id="XMLID_170_">
		<line id="XMLID_173_" class="st3" x1="808" y1="384" x2="808" y2="341"/>
		<g id="XMLID_171_">
			<polygon id="XMLID_172_" points="811,345.3 808,341.9 805,345.3 805,342.4 808,339 811,342.4 			"/>
		</g>
	</g>
</g>
<line id="XMLID_68_" class="st3" x1="609.2" y1="461.9" x2="651.2" y2="461.9"/>
<line id="XMLID_69_" class="st3" x1="609.2" y1="433.9" x2="651.2" y2="433.9"/>
<line id="XMLID_71_" class="st3" x1="609.2" y1="405.9" x2="651.2" y2="405.9"/>
<g id="XMLID_73_">
	<g id="XMLID_165_">
		<polyline id="XMLID_168_" class="st3" points="651.2,531.9 651.2,378.9 609.2,378.9 		"/>
		<g id="XMLID_166_">
			<polygon id="XMLID_167_" points="654.2,528.5 651.2,531.2 648.2,528.5 648.2,530.8 651.2,533.5 654.2,530.8 			"/>
		</g>
	</g>
</g>
<g id="XMLID_66_">
	<g id="XMLID_160_">
		<line id="XMLID_163_" class="st3" x1="716" y1="686" x2="761" y2="686"/>
		<g id="XMLID_161_">
			<polygon id="XMLID_162_" points="756.7,689 760.1,686 756.7,683 759.6,683 763,686 759.6,689 			"/>
		</g>
	</g>
</g>
<g id="XMLID_72_">
	<g id="XMLID_151_">
		<polyline id="XMLID_159_" class="st3" points="347.8,661 347.8,667 341.8,667 		"/>
		<line id="XMLID_158_" class="st6" x1="329.9" y1="667" x2="50" y2="667"/>
		<polyline id="XMLID_157_" class="st3" points="44,667 38,667 38,661 		"/>
		<line id="XMLID_156_" class="st7" x1="38" y1="649.7" x2="38" y2="474.6"/>
		<polyline id="XMLID_155_" class="st3" points="38,469 38,463 44,463 		"/>
		<line id="XMLID_154_" class="st6" x1="55.9" y1="463" x2="335.9" y2="463"/>
		<polyline id="XMLID_153_" class="st3" points="341.8,463 347.8,463 347.8,469 		"/>
		<line id="XMLID_152_" class="st7" x1="347.8" y1="480.3" x2="347.8" y2="655.3"/>
	</g>
</g>
<g id="XMLID_74_">
	<g id="XMLID_141_">
		<polyline id="XMLID_149_" class="st3" points="347.8,809 347.8,815 341.8,815 		"/>
		<line id="XMLID_148_" class="st6" x1="329.9" y1="815" x2="50" y2="815"/>
		<polyline id="XMLID_147_" class="st3" points="44,815 38,815 38,809 		"/>
		<line id="XMLID_146_" class="st8" x1="38" y1="796.8" x2="38" y2="705.1"/>
		<polyline id="XMLID_145_" class="st3" points="38,699 38,693 44,693 		"/>
		<line id="XMLID_144_" class="st6" x1="55.9" y1="693" x2="335.9" y2="693"/>
		<polyline id="XMLID_143_" class="st3" points="341.8,693 347.8,693 347.8,699 		"/>
		<line id="XMLID_142_" class="st8" x1="347.8" y1="711.2" x2="347.8" y2="802.9"/>
	</g>
</g>
<g id="XMLID_75_">
	<g id="XMLID_131_">
		<polyline id="XMLID_139_" class="st3" points="739.5,774.3 739.5,780.3 733.5,780.3 		"/>
		<line id="XMLID_138_" class="st9" x1="721.3" y1="780.3" x2="435.6" y2="780.3"/>
		<polyline id="XMLID_137_" class="st3" points="429.5,780.3 423.5,780.3 423.5,774.3 		"/>
		<line id="XMLID_136_" class="st10" x1="423.5" y1="762.2" x2="423.5" y2="527.5"/>
		<polyline id="XMLID_135_" class="st3" points="423.5,521.5 423.5,515.5 429.5,515.5 		"/>
		<line id="XMLID_134_" class="st9" x1="441.7" y1="515.5" x2="727.4" y2="515.5"/>
		<polyline id="XMLID_133_" class="st3" points="733.5,515.5 739.5,515.5 739.5,521.5 		"/>
		<line id="XMLID_132_" class="st10" x1="739.5" y1="533.5" x2="739.5" y2="768.3"/>
	</g>
</g>
<g id="XMLID_76_">
	<g id="XMLID_121_">
		<polyline id="XMLID_129_" class="st3" points="875,774.3 875,780.3 869,780.3 		"/>
		<line id="XMLID_128_" class="st11" x1="856.3" y1="780.3" x2="761.3" y2="780.3"/>
		<polyline id="XMLID_127_" class="st3" points="755,780.3 749,780.3 749,774.3 		"/>
		<line id="XMLID_126_" class="st12" x1="749" y1="763" x2="749" y2="633.8"/>
		<polyline id="XMLID_125_" class="st3" points="749,628.1 749,622.1 755,622.1 		"/>
		<line id="XMLID_124_" class="st11" x1="767.7" y1="622.1" x2="862.7" y2="622.1"/>
		<polyline id="XMLID_123_" class="st3" points="869,622.1 875,622.1 875,628.1 		"/>
		<line id="XMLID_122_" class="st12" x1="875" y1="639.3" x2="875" y2="768.7"/>
	</g>
</g>
<g id="XMLID_77_">
	<g id="XMLID_111_">
		<polyline id="XMLID_119_" class="st3" points="953,477.3 953,490 946,490 		"/>
		<line id="XMLID_118_" class="st13" x1="932" y1="490" x2="437.6" y2="490"/>
		<polyline id="XMLID_117_" class="st3" points="430.5,490 423.5,490 423.5,477.3 		"/>
		<line id="XMLID_116_" class="st14" x1="423.5" y1="453" x2="423.5" y2="124.9"/>
		<polyline id="XMLID_115_" class="st3" points="423.5,112.7 423.5,100 430.5,100 		"/>
		<line id="XMLID_114_" class="st13" x1="444.5" y1="100" x2="939" y2="100"/>
		<polyline id="XMLID_113_" class="st3" points="946,100 953,100 953,112.7 		"/>
		<line id="XMLID_112_" class="st14" x1="953" y1="137" x2="953" y2="465.2"/>
	</g>
</g>
<g id="XMLID_78_">
	<g id="XMLID_105_">
		<line id="XMLID_108_" class="st3" x1="808" y1="622" x2="808" y2="441"/>
		<g id="XMLID_106_">
			<polygon id="XMLID_107_" points="811,445.3 808,441.9 805,445.3 805,442.4 808,439 811,442.4 			"/>
		</g>
	</g>
</g>
<text id="XMLID_79_" transform="matrix(1 0 0 1 46.5 481.95)" class="st15 st16">A | HORS-LIGNE</text>
<text id="XMLID_80_" transform="matrix(1 0 0 1 431.5 119.95)" class="st15 st16">D | HORS-LIGNE</text>
<text id="XMLID_81_" transform="matrix(1 0 0 1 437.5 540.8668)" class="st15 st16">C | MODULE DE DÉTECTION</text>
<text id="XMLID_82_" transform="matrix(1 0 0 1 46.5 711.45)" class="st15 st16">B | EN-LIGNE</text>
<text id="XMLID_83_" transform="matrix(1 0 0 1 758 641.95)" class="st15 st16">E | SORTIES</text>
<rect id="XMLID_1_" x="763.2" y="230.8" transform="matrix(-0.7071 -0.7071 0.7071 -0.7071 1184.468 1041.8104)" class="st3" width="89.6" height="89.6"/>
<text id="XMLID_84_" transform="matrix(1 0 0 1 784.1125 277.5)" class="st0 st1">validation</text>
<g id="XMLID_87_">
	<rect id="XMLID_88_" x="757.5" y="112.2" class="st3" width="101" height="55"/>
</g>
<g id="XMLID_51_">
	<g id="XMLID_104_">
		<line id="XMLID_120_" class="st3" x1="808" y1="167" x2="808" y2="210"/>
		<g id="XMLID_109_">
			<polygon id="XMLID_110_" points="805,205.7 808,209.1 811,205.7 811,208.6 808,212 805,208.6 			"/>
		</g>
	</g>
</g>
<text id="XMLID_89_" transform="matrix(1 0 0 1 781.6367 129.2377)"><tspan x="0" y="0" class="st0 st1">travaux de</tspan><tspan x="1.4" y="14.4" class="st0 st1">recherche</tspan><tspan x="2.6" y="28.8" class="st0 st1">connexes</tspan></text>
<g id="XMLID_63_">
	<g id="XMLID_140_">
		<line id="XMLID_169_" class="st3" x1="745" y1="276" x2="630" y2="276"/>
		<g id="XMLID_150_">
			<polygon id="XMLID_164_" points="634.3,273 630.9,276 634.3,279 631.4,279 628,276 631.4,273 			"/>
		</g>
	</g>
</g>
<g id="XMLID_90_">
	<g id="XMLID_176_">
		<line id="XMLID_179_" class="st3" x1="578" y1="302" x2="578" y2="324"/>
		<g id="XMLID_177_">
			<polygon id="XMLID_178_" points="575,319.7 578,323.1 581,319.7 581,322.6 578,326 575,322.6 			"/>
		</g>
	</g>
</g>
<text id="XMLID_91_" transform="matrix(1 0 0 1 721.5459 271.5937)" class="st0 st1">non</text>
<polyline id="XMLID_92_" class="st3" points="940,840 940,276 941,276 871,276 "/>
<g id="XMLID_94_">
	<g id="XMLID_184_">
		<polyline id="XMLID_199_" class="st3" points="187,817 187,841 188,841 941,841 		"/>
		<g id="XMLID_189_">
			<polygon id="XMLID_194_" points="184,821.3 187,817.9 190,821.3 190,818.4 187,815 184,818.4 			"/>
		</g>
	</g>
</g>
<text id="XMLID_86_" transform="matrix(1 0 0 1 875.9961 271.5937)" class="st0 st1">oui</text>
</svg>
